<svg width="46" height="58" viewBox="0 0 46 58" fill="none" xmlns="http://www.w3.org/2000/svg">
<path d="M29.704 44.208C27.528 44.9333 25.288 45.296 22.984 45.296C20.8507 45.296 18.8027 45.0187 16.84 44.464C13.4693 43.568 10.5253 42.0747 8.00799 39.984C5.49065 37.8933 3.54932 35.3973 2.18399 32.496C0.818653 29.5946 0.135986 26.5013 0.135986 23.216C0.135986 21.1253 0.41332 19.056 0.967986 17.008C1.86399 13.6373 3.35732 10.6933 5.44799 8.17598C7.53865 5.65865 10.0133 3.73865 12.872 2.41598C15.7733 1.05065 18.8667 0.367981 22.152 0.367981C24.2853 0.367981 26.376 0.645315 28.424 1.19998C31.7947 2.09598 34.7387 3.58932 37.256 5.67998C39.7733 7.72798 41.6933 10.2027 43.016 13.104C44.3813 16.0053 45.064 19.0987 45.064 22.384C45.064 24.5173 44.7867 26.608 44.232 28.656C43.0373 33.1787 40.7547 36.912 37.384 39.856L44.872 52.784L37.256 57.392L29.704 44.208ZM19.144 35.824C20.5093 36.1226 21.5973 36.272 22.408 36.272C23.2187 36.272 24.0507 36.1653 24.904 35.952L18.056 24.048L25.672 19.376L32.648 31.536C34.0133 30.2133 34.9947 28.464 35.592 26.288C35.9333 25.0933 36.104 23.792 36.104 22.384C36.104 19.3973 35.208 16.7733 33.416 14.512C31.624 12.208 29.192 10.6507 26.12 9.83998C24.9253 9.49865 23.624 9.32798 22.216 9.32798C19.2293 9.32798 16.584 10.224 14.28 12.016C11.976 13.808 10.4187 16.2613 9.60799 19.376C9.26665 20.8267 9.09599 22.1066 9.09599 23.216C9.09599 26.2027 9.99199 28.848 11.784 31.152C13.576 33.456 16.0293 35.0133 19.144 35.824Z" fill="black"/>
</svg>
